<svg width="45" height="50" viewBox="0 0 45 50" fill="none" xmlns="http://www.w3.org/2000/svg">
<path d="M31.9428 11.9484C32.7077 12.7452 32.6819 14.0112 31.8851 14.7762L23.5517 22.7762C22.7778 23.5192 21.5555 23.5192 20.7816 22.7762L15.7816 17.9762C14.9848 17.2112 14.9589 15.9452 15.7239 15.1484C16.4888 14.3515 17.7549 14.3257 18.5517 15.0906L22.1667 18.561L29.1149 11.8906C29.9118 11.1257 31.1778 11.1515 31.9428 11.9484Z" fill="#5C45D9"/>
<path fill-rule="evenodd" clip-rule="evenodd" d="M0.5 13.3334C0.5 6.33781 6.17106 0.666748 13.1667 0.666748H39.8333C42.4107 0.666748 44.5 2.75609 44.5 5.33341V45.3334C44.5 47.9107 42.4107 50.0001 39.8333 50.0001H10.5C4.97715 50.0001 0.5 45.5229 0.5 40.0001V13.3334ZM4.5 31.9993C6.17132 30.744 8.24879 30.0001 10.5 30.0001H40.5V5.33341C40.5 4.96522 40.2015 4.66675 39.8333 4.66675H13.1667C8.3802 4.66675 4.5 8.54695 4.5 13.3334V31.9993ZM4.5 40.0001C4.5 43.3138 7.18629 46.0001 10.5 46.0001H39.8333C40.2015 46.0001 40.5 45.7016 40.5 45.3334V34.0001H10.5C7.18629 34.0001 4.5 36.6864 4.5 40.0001Z" fill="#5C45D9"/>
</svg>
