<svg width="307" height="98" viewBox="0 0 307 98" fill="none" xmlns="http://www.w3.org/2000/svg">
<path d="M2.37109 32.5164L5.9621 37.4505C9.57411 42.2002 16.8611 52.345 24.0011 59.5848C31.1622 67.1012 38.2812 71.7125 45.6312 62.0288C52.7712 52.345 59.9112 27.444 67.2612 27.5823C74.3802 27.444 81.5413 52.345 88.6813 59.5848C95.9683 67.1012 103.171 56.9564 110.311 62.0288C117.577 67.1012 124.801 86.4687 131.941 79.229C139.165 71.7125 146.431 37.5889 153.571 39.8945C160.774 42.2002 168.061 60.197 175.201 79.7028C182.362 99.3931 189.481 99.3931 196.832 87.0809C204.97 75.2958 208.943 70.6858 217.694 64.1948C226.926 58.2382 232.742 67.1012 239.882 57.0947C247.169 47.2726 254.372 17.7602 261.512 12.8261C268.778 8.07647 276.002 27.444 283.142 30.0724C290.366 32.5164 297.632 17.7602 301.202 10.3821L304.772 3.00403" stroke="#8DDD2B" stroke-width="4.30464" stroke-linecap="round"/>
</svg>
