<svg width="341" height="218" viewBox="0 0 341 218" fill="none" xmlns="http://www.w3.org/2000/svg">
<rect x="0.570312" y="0.570312" width="340.066" height="217.384" rx="10.7616" fill="white"/>
<path d="M103.214 37.8652V25.8123H105.366L109.447 33.8361L113.511 25.8123H115.663V37.8652H113.838V28.9632L110.153 36.1434H108.741L105.039 28.9805V37.8652H103.214ZM120.592 38.0719C119.868 38.0719 119.272 37.9513 118.801 37.7103C118.33 37.4692 117.98 37.1535 117.751 36.7632C117.521 36.3615 117.406 35.9253 117.406 35.4546C117.406 34.6281 117.728 33.9738 118.37 33.4917C119.013 33.0096 119.932 32.7685 121.125 32.7685H123.364V32.6136C123.364 31.9478 123.18 31.4485 122.813 31.1156C122.457 30.7827 121.992 30.6162 121.418 30.6162C120.913 30.6162 120.471 30.7425 120.092 30.995C119.725 31.2361 119.501 31.5977 119.421 32.0798H117.596C117.653 31.4599 117.86 30.9319 118.215 30.4957C118.583 30.048 119.042 29.7094 119.593 29.4798C120.155 29.2387 120.77 29.1182 121.435 29.1182C122.629 29.1182 123.553 29.4339 124.207 30.0652C124.862 30.6851 125.189 31.5345 125.189 32.6136V37.8652H123.605L123.45 36.4017C123.209 36.8723 122.859 37.2683 122.4 37.5897C121.94 37.9112 121.338 38.0719 120.592 38.0719ZM120.953 36.5911C121.447 36.5911 121.86 36.4763 122.193 36.2467C122.537 36.0056 122.801 35.69 122.985 35.2997C123.18 34.9094 123.301 34.4789 123.347 34.0083H121.315C120.592 34.0083 120.075 34.1345 119.765 34.3871C119.467 34.6396 119.317 34.9553 119.317 35.3341C119.317 35.7244 119.461 36.0343 119.748 36.2639C120.046 36.482 120.448 36.5911 120.953 36.5911ZM126.973 37.8652V29.3248H128.591L128.729 30.8228C128.993 30.2948 129.378 29.8816 129.883 29.5831C130.399 29.2732 130.99 29.1182 131.656 29.1182C132.689 29.1182 133.499 29.4396 134.084 30.0825C134.681 30.7253 134.979 31.6838 134.979 32.9579V37.8652H133.171V33.1474C133.171 31.4944 132.494 30.6679 131.14 30.6679C130.462 30.6679 129.9 30.9089 129.452 31.3911C129.016 31.8732 128.798 32.5619 128.798 33.4573V37.8652H126.973ZM140.28 35.248C139.832 35.248 139.419 35.1964 139.04 35.093L138.3 35.8162C138.426 35.8966 138.581 35.9655 138.765 36.0229C138.948 36.0802 139.207 36.1319 139.54 36.1778C139.872 36.2237 140.326 36.2696 140.9 36.3156C142.036 36.4189 142.857 36.6944 143.362 37.1421C143.867 37.5783 144.12 38.1637 144.12 38.8983C144.12 39.4034 143.982 39.8798 143.706 40.3275C143.442 40.7866 143.023 41.154 142.449 41.4295C141.887 41.7164 141.164 41.8599 140.28 41.8599C139.086 41.8599 138.116 41.6304 137.37 41.1712C136.635 40.7235 136.268 40.0405 136.268 39.1222C136.268 38.7663 136.36 38.4105 136.544 38.0546C136.739 37.7103 137.043 37.3831 137.456 37.0732C137.215 36.9699 137.003 36.8608 136.819 36.746C136.647 36.6198 136.492 36.4935 136.354 36.3672V35.954L137.835 34.4387C137.169 33.8648 136.836 33.1129 136.836 32.1831C136.836 31.6206 136.968 31.1098 137.232 30.6507C137.508 30.18 137.904 29.807 138.42 29.5315C138.937 29.256 139.557 29.1182 140.28 29.1182C140.762 29.1182 141.21 29.1871 141.623 29.3248H144.808V30.5301L143.293 30.6162C143.569 31.0869 143.706 31.6092 143.706 32.1831C143.706 32.7571 143.569 33.2736 143.293 33.7328C143.029 34.1919 142.639 34.5593 142.122 34.8348C141.617 35.1103 141.003 35.248 140.28 35.248ZM140.28 33.8189C140.808 33.8189 141.233 33.6811 141.554 33.4056C141.887 33.1187 142.053 32.7169 142.053 32.2003C142.053 31.6723 141.887 31.2705 141.554 30.995C141.233 30.7195 140.808 30.5818 140.28 30.5818C139.74 30.5818 139.304 30.7195 138.971 30.995C138.65 31.2705 138.489 31.6723 138.489 32.2003C138.489 32.7169 138.65 33.1187 138.971 33.4056C139.304 33.6811 139.74 33.8189 140.28 33.8189ZM137.99 38.95C137.99 39.4436 138.208 39.8109 138.644 40.052C139.08 40.3045 139.626 40.4308 140.28 40.4308C140.911 40.4308 141.422 40.293 141.812 40.0176C142.203 39.7535 142.398 39.3977 142.398 38.95C142.398 38.6171 142.266 38.3301 142.002 38.0891C141.738 37.8595 141.238 37.716 140.504 37.6586C139.953 37.6242 139.465 37.5725 139.04 37.5036C138.638 37.7217 138.363 37.9571 138.214 38.2096C138.064 38.4621 137.99 38.7089 137.99 38.95ZM149.75 38.0719C148.912 38.0719 148.166 37.8882 147.512 37.5209C146.869 37.1421 146.364 36.6198 145.997 35.954C145.629 35.2882 145.446 34.5134 145.446 33.6295C145.446 32.7341 145.624 31.9478 145.98 31.2705C146.347 30.5933 146.852 30.0652 147.495 29.6864C148.149 29.3076 148.907 29.1182 149.768 29.1182C150.606 29.1182 151.335 29.3076 151.954 29.6864C152.574 30.0538 153.056 30.5474 153.401 31.1672C153.745 31.7871 153.917 32.4701 153.917 33.2162C153.917 33.331 153.912 33.4573 153.9 33.595C153.9 33.7213 153.894 33.8648 153.883 34.0255H147.236C147.294 34.852 147.564 35.4833 148.046 35.9195C148.539 36.3443 149.108 36.5566 149.75 36.5566C150.267 36.5566 150.697 36.4418 151.042 36.2123C151.398 35.9712 151.662 35.6498 151.834 35.248H153.659C153.429 36.0515 152.97 36.7231 152.282 37.2626C151.604 37.8021 150.761 38.0719 149.75 38.0719ZM149.75 30.6162C149.142 30.6162 148.602 30.7999 148.132 31.1672C147.661 31.5231 147.374 32.0626 147.271 32.7858H152.092C152.058 32.12 151.822 31.5919 151.386 31.2017C150.95 30.8114 150.405 30.6162 149.75 30.6162ZM160.459 41.6533L162.508 37.1593H162.009L158.634 29.3248H160.614L163.231 35.644L165.969 29.3248H167.898L162.388 41.6533H160.459ZM172.275 38.0719C171.46 38.0719 170.725 37.8882 170.071 37.5209C169.428 37.1421 168.917 36.6198 168.539 35.954C168.16 35.2767 167.97 34.4904 167.97 33.595C167.97 32.6997 168.16 31.9191 168.539 31.2533C168.929 30.5761 169.451 30.0538 170.106 29.6864C170.76 29.3076 171.489 29.1182 172.292 29.1182C173.107 29.1182 173.836 29.3076 174.479 29.6864C175.133 30.0538 175.65 30.5761 176.029 31.2533C176.419 31.9191 176.614 32.6997 176.614 33.595C176.614 34.4904 176.419 35.2767 176.029 35.954C175.65 36.6198 175.133 37.1421 174.479 37.5209C173.825 37.8882 173.09 38.0719 172.275 38.0719ZM172.275 36.505C172.711 36.505 173.113 36.3959 173.48 36.1778C173.859 35.9597 174.163 35.6383 174.393 35.2136C174.623 34.7774 174.737 34.2379 174.737 33.595C174.737 32.9522 174.623 32.4184 174.393 31.9937C174.175 31.5575 173.876 31.2304 173.498 31.0123C173.13 30.7942 172.728 30.6851 172.292 30.6851C171.856 30.6851 171.449 30.7942 171.07 31.0123C170.702 31.2304 170.404 31.5575 170.174 31.9937C169.945 32.4184 169.83 32.9522 169.83 33.595C169.83 34.2379 169.945 34.7774 170.174 35.2136C170.404 35.6383 170.702 35.9597 171.07 36.1778C171.437 36.3959 171.839 36.505 172.275 36.505ZM181.395 38.0719C180.361 38.0719 179.546 37.7504 178.95 37.1076C178.364 36.4648 178.071 35.5063 178.071 34.2321V29.3248H179.897V34.0427C179.897 35.6957 180.574 36.5222 181.928 36.5222C182.606 36.5222 183.162 36.2811 183.599 35.799C184.035 35.3169 184.253 34.6281 184.253 33.7328V29.3248H186.078V37.8652H184.459L184.322 36.3672C184.058 36.8953 183.667 37.3142 183.151 37.6242C182.646 37.9226 182.06 38.0719 181.395 38.0719ZM188.055 37.8652V29.3248H189.691L189.846 30.9434C190.145 30.3809 190.558 29.939 191.086 29.6176C191.625 29.2847 192.274 29.1182 193.032 29.1182V31.0295H192.532C192.027 31.0295 191.574 31.1156 191.172 31.2878C190.782 31.4485 190.466 31.7297 190.225 32.1315C189.995 32.5217 189.881 33.067 189.881 33.7672V37.8652H188.055ZM201.655 38.0719C200.576 38.0719 199.687 37.8078 198.986 37.2798C198.286 36.7518 197.884 36.0515 197.781 35.1791H199.624C199.715 35.5694 199.933 35.9081 200.278 36.195C200.622 36.4705 201.076 36.6083 201.638 36.6083C202.189 36.6083 202.591 36.4935 202.843 36.2639C203.096 36.0343 203.222 35.7703 203.222 35.4719C203.222 35.0357 203.044 34.7429 202.688 34.5937C202.344 34.433 201.862 34.2895 201.242 34.1632C200.76 34.0599 200.278 33.9222 199.796 33.75C199.325 33.5778 198.929 33.3368 198.608 33.0268C198.298 32.7054 198.143 32.2749 198.143 31.7354C198.143 30.9893 198.43 30.3694 199.004 29.8758C199.578 29.3708 200.381 29.1182 201.414 29.1182C202.367 29.1182 203.136 29.3478 203.722 29.807C204.318 30.2661 204.669 30.9147 204.772 31.7527H203.016C202.958 31.3853 202.786 31.0983 202.499 30.8917C202.224 30.6851 201.85 30.5818 201.38 30.5818C200.921 30.5818 200.565 30.6794 200.312 30.8745C200.06 31.0582 199.933 31.2992 199.933 31.5977C199.933 31.8961 200.106 32.1315 200.45 32.3036C200.806 32.4758 201.271 32.6308 201.845 32.7685C202.419 32.8948 202.947 33.044 203.429 33.2162C203.922 33.3769 204.318 33.618 204.617 33.9394C204.915 34.2608 205.065 34.7315 205.065 35.3513C205.076 36.1319 204.772 36.7805 204.152 37.297C203.544 37.8136 202.711 38.0719 201.655 38.0719ZM209.975 37.8652C209.137 37.8652 208.471 37.6644 207.977 37.2626C207.484 36.8493 207.237 36.1204 207.237 35.0758V30.8573H205.773V29.3248H207.237L207.461 27.1553H209.062V29.3248H211.473V30.8573H209.062V35.0758C209.062 35.5465 209.16 35.8736 209.355 36.0573C209.561 36.2295 209.912 36.3156 210.405 36.3156H211.387V37.8652H209.975ZM216.786 38.0719C215.971 38.0719 215.237 37.8882 214.582 37.5209C213.94 37.1421 213.429 36.6198 213.05 35.954C212.671 35.2767 212.482 34.4904 212.482 33.595C212.482 32.6997 212.671 31.9191 213.05 31.2533C213.44 30.5761 213.963 30.0538 214.617 29.6864C215.271 29.3076 216 29.1182 216.804 29.1182C217.619 29.1182 218.348 29.3076 218.99 29.6864C219.645 30.0538 220.161 30.5761 220.54 31.2533C220.93 31.9191 221.125 32.6997 221.125 33.595C221.125 34.4904 220.93 35.2767 220.54 35.954C220.161 36.6198 219.645 37.1421 218.99 37.5209C218.336 37.8882 217.601 38.0719 216.786 38.0719ZM216.786 36.505C217.223 36.505 217.624 36.3959 217.992 36.1778C218.37 35.9597 218.675 35.6383 218.904 35.2136C219.134 34.7774 219.249 34.2379 219.249 33.595C219.249 32.9522 219.134 32.4184 218.904 31.9937C218.686 31.5575 218.388 31.2304 218.009 31.0123C217.642 30.7942 217.24 30.6851 216.804 30.6851C216.367 30.6851 215.96 30.7942 215.581 31.0123C215.214 31.2304 214.915 31.5575 214.686 31.9937C214.456 32.4184 214.341 32.9522 214.341 33.595C214.341 34.2379 214.456 34.7774 214.686 35.2136C214.915 35.6383 215.214 35.9597 215.581 36.1778C215.948 36.3959 216.35 36.505 216.786 36.505ZM222.755 37.8652V29.3248H224.391L224.546 30.9434C224.844 30.3809 225.257 29.939 225.785 29.6176C226.325 29.2847 226.973 29.1182 227.731 29.1182V31.0295H227.232C226.727 31.0295 226.273 31.1156 225.871 31.2878C225.481 31.4485 225.165 31.7297 224.924 32.1315C224.695 32.5217 224.58 33.067 224.58 33.7672V37.8652H222.755ZM232.711 38.0719C231.873 38.0719 231.127 37.8882 230.472 37.5209C229.83 37.1421 229.325 36.6198 228.957 35.954C228.59 35.2882 228.406 34.5134 228.406 33.6295C228.406 32.7341 228.584 31.9478 228.94 31.2705C229.307 30.5933 229.812 30.0652 230.455 29.6864C231.109 29.3076 231.867 29.1182 232.728 29.1182C233.566 29.1182 234.295 29.3076 234.915 29.6864C235.535 30.0538 236.017 30.5474 236.361 31.1672C236.706 31.7871 236.878 32.4701 236.878 33.2162C236.878 33.331 236.872 33.4573 236.86 33.595C236.86 33.7213 236.855 33.8648 236.843 34.0255H230.197C230.254 34.852 230.524 35.4833 231.006 35.9195C231.5 36.3443 232.068 36.5566 232.711 36.5566C233.227 36.5566 233.658 36.4418 234.002 36.2123C234.358 35.9712 234.622 35.6498 234.794 35.248H236.619C236.39 36.0515 235.931 36.7231 235.242 37.2626C234.565 37.8021 233.721 38.0719 232.711 38.0719ZM232.711 30.6162C232.102 30.6162 231.563 30.7999 231.092 31.1672C230.622 31.5231 230.335 32.0626 230.231 32.7858H235.053C235.018 32.12 234.783 31.5919 234.347 31.2017C233.91 30.8114 233.365 30.6162 232.711 30.6162Z" fill="#0A071B"/>
<circle opacity="0.1" cx="52.2262" cy="88.8151" r="27.9801" fill="#EC9D40"/>
<path fill-rule="evenodd" clip-rule="evenodd" d="M47.1159 83.5707V83.9688H45.5004C45.0191 83.9688 44.6107 84.3217 44.5409 84.7979L44.3056 86.404C43.8461 89.5404 43.8461 92.727 44.3056 95.8634C44.5115 97.2688 45.6448 98.3552 47.0575 98.5017L47.7343 98.5719C50.7218 98.8817 53.7334 98.8817 56.7209 98.5719L57.3977 98.5017C58.8105 98.3552 59.9437 97.2688 60.1496 95.8634C60.6092 92.727 60.6092 89.5404 60.1496 86.404L59.9143 84.7979C59.8445 84.3217 59.4361 83.9688 58.9548 83.9688H57.3394V83.5707C57.3394 81.2379 55.76 79.201 53.5007 78.62C52.6655 78.4053 51.7897 78.4053 50.9546 78.62C48.6952 79.201 47.1159 81.2379 47.1159 83.5707ZM53.0986 80.1834C52.5273 80.0365 51.928 80.0365 51.3566 80.1834C49.8107 80.5809 48.7301 81.9746 48.7301 83.5707V83.9688H55.7251V83.5707C55.7251 81.9746 54.6445 80.5809 53.0986 80.1834ZM48.7301 85.583C48.7301 85.1373 48.3687 84.7759 47.923 84.7759C47.4772 84.7759 47.1159 85.1373 47.1159 85.583V87.7353C47.1159 88.1811 47.4772 88.5425 47.923 88.5425C48.3687 88.5425 48.7301 88.1811 48.7301 87.7353V85.583ZM57.3394 85.583C57.3394 85.1373 56.978 84.7759 56.5323 84.7759C56.0865 84.7759 55.7251 85.1373 55.7251 85.583V87.7353C55.7251 88.1811 56.0865 88.5425 56.5323 88.5425C56.978 88.5425 57.3394 88.1811 57.3394 87.7353V85.583Z" fill="#EC9D40"/>
<rect opacity="0.1" x="93.1211" y="69.4443" width="138.825" height="11.8377" rx="5.91887" fill="#0A071B" fill-opacity="0.7"/>
<rect opacity="0.1" x="93.1211" y="96.3486" width="77.4834" height="11.8377" rx="5.91887" fill="#0A071B" fill-opacity="0.7"/>
<path d="M316.962 88.8151C316.962 103.971 304.676 116.257 289.52 116.257C274.364 116.257 262.078 103.971 262.078 88.8151C262.078 73.6593 274.364 61.373 289.52 61.373C304.676 61.373 316.962 73.6593 316.962 88.8151ZM270.167 88.8151C270.167 99.5036 278.832 108.168 289.52 108.168C300.209 108.168 308.873 99.5036 308.873 88.8151C308.873 78.1266 300.209 69.4619 289.52 69.4619C278.832 69.4619 270.167 78.1266 270.167 88.8151Z" fill="#EEEEEF"/>
<mask id="path-8-inside-1_726_910" fill="white">
<path d="M312.951 88.8151C315.167 88.8151 316.992 90.6203 316.67 92.8118C315.953 97.6778 313.938 102.288 310.801 106.141C306.816 111.036 301.266 114.407 295.085 115.687C288.904 116.967 282.471 116.077 276.87 113.168C271.269 110.258 266.842 105.506 264.335 99.7137C261.828 93.9209 261.395 87.4411 263.108 81.3662C264.822 75.2913 268.577 69.9928 273.741 66.3634C278.905 62.734 285.162 60.9958 291.458 61.4416C296.413 61.7924 301.154 63.4792 305.192 66.2881C307.01 67.5531 307.076 70.1197 305.56 71.7345C304.044 73.3492 301.52 73.3858 299.629 72.2329C296.997 70.6287 294.004 69.6635 290.892 69.4432C286.436 69.1277 282.008 70.3578 278.353 72.9263C274.699 75.4947 272.041 79.2445 270.829 83.5436C269.616 87.8427 269.923 92.4284 271.697 96.5279C273.471 100.627 276.604 103.99 280.568 106.049C284.532 108.108 289.084 108.738 293.458 107.832C297.832 106.926 301.76 104.54 304.581 101.076C306.551 98.6565 307.896 95.814 308.528 92.7976C308.982 90.6295 310.736 88.8151 312.951 88.8151Z"/>
</mask>
<path d="M312.951 88.8151C315.167 88.8151 316.992 90.6203 316.67 92.8118C315.953 97.6778 313.938 102.288 310.801 106.141C306.816 111.036 301.266 114.407 295.085 115.687C288.904 116.967 282.471 116.077 276.87 113.168C271.269 110.258 266.842 105.506 264.335 99.7137C261.828 93.9209 261.395 87.4411 263.108 81.3662C264.822 75.2913 268.577 69.9928 273.741 66.3634C278.905 62.734 285.162 60.9958 291.458 61.4416C296.413 61.7924 301.154 63.4792 305.192 66.2881C307.01 67.5531 307.076 70.1197 305.56 71.7345C304.044 73.3492 301.52 73.3858 299.629 72.2329C296.997 70.6287 294.004 69.6635 290.892 69.4432C286.436 69.1277 282.008 70.3578 278.353 72.9263C274.699 75.4947 272.041 79.2445 270.829 83.5436C269.616 87.8427 269.923 92.4284 271.697 96.5279C273.471 100.627 276.604 103.99 280.568 106.049C284.532 108.108 289.084 108.738 293.458 107.832C297.832 106.926 301.76 104.54 304.581 101.076C306.551 98.6565 307.896 95.814 308.528 92.7976C308.982 90.6295 310.736 88.8151 312.951 88.8151Z" stroke="#8DDD2B" stroke-width="34.4371" stroke-linecap="round" mask="url(#path-8-inside-1_726_910)"/>
<circle opacity="0.1" cx="52.2262" cy="168.452" r="27.9801" fill="#FD8B8B"/>
<path d="M59.921 161.185H45.0564L43.7864 158.908C43.6438 158.653 43.3741 158.494 43.0815 158.494H41.4673C41.0215 158.494 40.6602 158.856 40.6602 159.301C40.6602 159.747 41.0215 160.108 41.4673 160.108H42.6076L43.861 162.355L46.7516 168.751L46.7546 168.757L47.0092 169.321L44.1069 172.416C43.8983 172.639 43.8329 172.96 43.9381 173.247C44.0433 173.533 44.301 173.736 44.6041 173.77L47.2495 174.073C50.5583 174.451 53.8995 174.451 57.2083 174.073L59.8536 173.77C60.2965 173.72 60.6145 173.32 60.5639 172.877C60.5133 172.434 60.1132 172.116 59.6704 172.167L57.025 172.469C53.838 172.833 50.6198 172.833 47.4328 172.469L46.3829 172.349L48.5131 170.077C48.5337 170.055 48.5528 170.032 48.5705 170.008L49.3806 170.114C50.5159 170.262 51.6635 170.291 52.8047 170.2C55.4666 169.99 57.9336 168.723 59.6559 166.683L60.278 165.946C60.2989 165.921 60.3183 165.895 60.3361 165.868L61.4955 164.101C62.3173 162.849 61.4189 161.185 59.921 161.185Z" fill="#FD8B8B"/>
<path d="M46.31 175.444C45.4185 175.444 44.6958 176.166 44.6958 177.058C44.6958 177.949 45.4185 178.672 46.31 178.672C47.2015 178.672 47.9242 177.949 47.9242 177.058C47.9242 176.166 47.2015 175.444 46.31 175.444Z" fill="#FD8B8B"/>
<path d="M56.5335 177.058C56.5335 176.166 57.2562 175.444 58.1477 175.444C59.0393 175.444 59.762 176.166 59.762 177.058C59.762 177.949 59.0393 178.672 58.1477 178.672C57.2562 178.672 56.5335 177.949 56.5335 177.058Z" fill="#FD8B8B"/>
<rect opacity="0.1" x="93.1211" y="149.081" width="138.825" height="11.8377" rx="5.91887" fill="#0A071B" fill-opacity="0.7"/>
<rect opacity="0.1" x="93.1211" y="175.985" width="77.4834" height="11.8377" rx="5.91887" fill="#0A071B" fill-opacity="0.7"/>
<path d="M315.884 168.452C315.884 183.608 303.598 195.894 288.442 195.894C273.286 195.894 261 183.608 261 168.452C261 153.296 273.286 141.01 288.442 141.01C303.598 141.01 315.884 153.296 315.884 168.452ZM269.089 168.452C269.089 179.14 277.754 187.805 288.442 187.805C299.131 187.805 307.795 179.14 307.795 168.452C307.795 157.763 299.131 149.099 288.442 149.099C277.754 149.099 269.089 157.763 269.089 168.452Z" fill="#EEEEEF"/>
<mask id="path-14-inside-2_726_910" fill="white">
<path d="M311.873 168.452C314.088 168.452 315.914 170.257 315.592 172.448C315.193 175.155 314.391 177.795 313.205 180.278C311.442 183.971 308.874 187.222 305.692 189.795C302.509 192.367 298.791 194.195 294.81 195.145C292.134 195.783 289.385 196.014 286.655 195.836C284.444 195.691 283.062 193.528 283.527 191.362C283.991 189.196 286.133 187.861 288.349 187.872C289.893 187.879 291.437 187.703 292.949 187.342C295.766 186.67 298.397 185.376 300.649 183.556C302.902 181.735 304.719 179.434 305.967 176.821C306.636 175.419 307.133 173.946 307.45 172.434C307.904 170.266 309.658 168.452 311.873 168.452Z"/>
</mask>
<path d="M311.873 168.452C314.088 168.452 315.914 170.257 315.592 172.448C315.193 175.155 314.391 177.795 313.205 180.278C311.442 183.971 308.874 187.222 305.692 189.795C302.509 192.367 298.791 194.195 294.81 195.145C292.134 195.783 289.385 196.014 286.655 195.836C284.444 195.691 283.062 193.528 283.527 191.362C283.991 189.196 286.133 187.861 288.349 187.872C289.893 187.879 291.437 187.703 292.949 187.342C295.766 186.67 298.397 185.376 300.649 183.556C302.902 181.735 304.719 179.434 305.967 176.821C306.636 175.419 307.133 173.946 307.45 172.434C307.904 170.266 309.658 168.452 311.873 168.452Z" stroke="#8DDD2B" stroke-width="34.4371" stroke-linecap="round" mask="url(#path-14-inside-2_726_910)"/>
</svg>
