<svg width="340" height="218" viewBox="0 0 340 218" fill="none" xmlns="http://www.w3.org/2000/svg">
<rect x="0.441406" y="0.570312" width="338.99" height="217.384" rx="10.7616" fill="white"/>
<path d="M19.8125 129.087L23.4035 134.021C27.0155 138.77 34.3025 148.915 41.4425 156.155C48.6036 163.671 55.7226 168.283 63.0726 158.599C70.2126 148.915 77.3526 124.014 84.7026 124.153C91.8217 124.014 98.9827 148.915 106.123 156.155C113.41 163.671 120.613 153.527 127.753 158.599C135.019 163.671 142.243 183.039 149.383 175.799C156.607 168.283 163.873 134.159 171.013 136.465C178.216 138.77 185.503 156.767 192.643 176.273C199.804 195.963 206.923 195.963 214.273 183.651C222.411 171.866 226.384 167.256 235.136 160.765C244.367 154.808 250.183 163.671 257.323 153.665C264.61 143.843 271.813 114.33 278.953 109.396C286.219 104.647 293.443 124.014 300.583 126.643C307.807 129.087 315.073 114.33 318.643 106.952L322.213 99.5742" stroke="#8DDD2B" stroke-width="4.30464" stroke-linecap="round"/>
<path d="M29.8441 59.0529V56.567C27.7564 56.3302 26.056 55.5984 24.7431 54.3716C23.4302 53.1448 22.7522 51.4983 22.7092 49.4321H27.0676C27.1107 50.293 27.3689 51.0463 27.8425 51.692C28.3375 52.3377 29.0047 52.7789 29.8441 53.0157V46.2036C29.6504 46.139 29.4459 46.0744 29.2307 46.0099C29.037 45.9453 28.8325 45.8807 28.6173 45.8162C26.8739 45.2135 25.5395 44.4387 24.614 43.4917C23.71 42.5446 23.258 41.2855 23.258 39.7143C23.2365 37.8633 23.8391 36.3782 25.066 35.259C26.2928 34.1183 27.8855 33.4619 29.8441 33.2897V30.6746H32.0072V33.322C33.9443 33.5157 35.5047 34.1936 36.6885 35.3559C37.8938 36.4966 38.5287 37.971 38.5933 39.7789H34.1703C34.1487 39.1547 33.9443 38.5844 33.5569 38.0678C33.191 37.5297 32.6744 37.1531 32.0072 36.9378V42.9428C32.1794 43.0074 32.3516 43.072 32.5237 43.1365C32.6959 43.1796 32.8681 43.2334 33.0403 43.2979C34.1595 43.6854 35.1819 44.1374 36.1074 44.6539C37.0329 45.1705 37.7754 45.8592 38.335 46.7201C38.8946 47.5595 39.1744 48.6465 39.1744 49.9809C39.1744 51.1001 38.8946 52.144 38.335 53.1125C37.7969 54.0811 36.9898 54.8882 35.9136 55.5339C34.859 56.158 33.5569 56.5132 32.0072 56.5993V59.0529H29.8441ZM27.5842 39.4238C27.5842 40.1125 27.7886 40.6721 28.1976 41.1026C28.6065 41.5115 29.1554 41.8667 29.8441 42.168V36.8087C29.1769 36.9378 28.6281 37.2284 28.1976 37.6804C27.7886 38.1324 27.5842 38.7135 27.5842 39.4238ZM34.7837 50.2715C34.7837 49.4105 34.5254 48.7326 34.0088 48.2375C33.4923 47.7425 32.8251 47.3228 32.0072 46.9784V53.1125C32.8681 52.9834 33.5461 52.6713 34.0411 52.1763C34.5362 51.6812 34.7837 51.0463 34.7837 50.2715ZM50.4728 56.2441L58.996 37.1638H47.8578V33.6448H63.2576V36.5827L54.7667 56.2441H50.4728ZM62.4303 59.9892L64.2705 51.9503H68.2738L65.1422 59.9892H62.4303ZM70.4513 56.2441V53.2417C71.8288 52.1009 73.1632 50.971 74.4546 49.8518C75.7675 48.7326 76.9298 47.6241 77.9414 46.5264C78.9745 45.4287 79.7923 44.3633 80.395 43.3302C81.0192 42.2756 81.3313 41.2532 81.3313 40.2632C81.3313 39.3377 81.073 38.5198 80.5564 37.8095C80.0614 37.0993 79.2327 36.7441 78.0705 36.7441C76.8867 36.7441 75.9935 37.1316 75.3909 37.9064C74.7882 38.6812 74.4869 39.6175 74.4869 40.7152H70.4836C70.5266 39.0579 70.8925 37.6804 71.5813 36.5827C72.27 35.4635 73.1847 34.6349 74.3255 34.0968C75.4662 33.5372 76.7468 33.2574 78.1673 33.2574C80.4703 33.2574 82.2568 33.8923 83.5266 35.1622C84.818 36.4105 85.4637 38.0355 85.4637 40.0372C85.4637 41.2855 85.1731 42.5016 84.592 43.6854C84.0324 44.8691 83.2899 46.0099 82.3644 47.1076C81.4389 48.2052 80.438 49.2383 79.3619 50.2069C78.2857 51.1539 77.2418 52.0364 76.2303 52.8542H86.0125V56.2441H70.4513ZM96.4889 56.6316C94.9393 56.6316 93.5403 56.3625 92.2919 55.8244C91.0436 55.2648 90.0428 54.4792 89.2894 53.4677C88.5577 52.4561 88.1918 51.283 88.1918 49.9486C88.1918 48.5711 88.5469 47.3658 89.2572 46.3327C89.9889 45.2996 90.9467 44.5571 92.1305 44.1051C91.0974 43.6531 90.2795 43.0074 89.6769 42.168C89.0742 41.3071 88.7729 40.3493 88.7729 39.2946C88.7729 38.2185 89.0634 37.2284 89.6446 36.3244C90.2257 35.3989 91.0866 34.6564 92.2274 34.0968C93.3896 33.5372 94.8101 33.2574 96.4889 33.2574C98.1678 33.2574 99.5775 33.5372 100.718 34.0968C101.859 34.6564 102.72 35.3989 103.301 36.3244C103.882 37.2284 104.173 38.2185 104.173 39.2946C104.173 40.3277 103.861 41.2855 103.236 42.168C102.634 43.0289 101.827 43.6746 100.815 44.1051C102.02 44.5571 102.978 45.2996 103.688 46.3327C104.399 47.3658 104.754 48.5711 104.754 49.9486C104.754 51.283 104.388 52.4561 103.656 53.4677C102.924 54.4792 101.924 55.2648 100.654 55.8244C99.4053 56.3625 98.0171 56.6316 96.4889 56.6316ZM96.4889 42.8782C97.6082 42.8782 98.4906 42.5877 99.1363 42.0066C99.782 41.4254 100.105 40.6829 100.105 39.7789C100.105 38.7888 99.782 38.014 99.1363 37.4544C98.5121 36.8948 97.6297 36.615 96.4889 36.615C95.3267 36.615 94.4335 36.8948 93.8093 37.4544C93.1851 38.014 92.8731 38.7888 92.8731 39.7789C92.8731 40.7044 93.1851 41.4577 93.8093 42.0388C94.455 42.5984 95.3482 42.8782 96.4889 42.8782ZM96.4889 53.1771C97.8664 53.1771 98.9103 52.8435 99.6206 52.1763C100.331 51.4875 100.686 50.6266 100.686 49.5935C100.686 48.4527 100.309 47.5595 99.556 46.9138C98.8242 46.2681 97.8019 45.9453 96.4889 45.9453C95.176 45.9453 94.1322 46.2681 93.3573 46.9138C92.604 47.5595 92.2274 48.4527 92.2274 49.5935C92.2274 50.6266 92.5825 51.4875 93.2928 52.1763C94.0245 52.8435 95.0899 53.1771 96.4889 53.1771ZM115.566 56.6316C114.081 56.6316 112.736 56.3733 111.531 55.8567C110.325 55.3186 109.357 54.5008 108.625 53.4031C107.893 52.3054 107.506 50.9279 107.463 49.2706H111.531C111.552 50.3683 111.907 51.2938 112.596 52.0471C113.306 52.7789 114.296 53.1448 115.566 53.1448C116.772 53.1448 117.697 52.8112 118.343 52.144C118.988 51.4768 119.311 50.6374 119.311 49.6258C119.311 48.442 118.881 47.5488 118.02 46.9461C117.18 46.322 116.094 46.0099 114.759 46.0099H113.08V42.62H114.791C115.889 42.62 116.804 42.3617 117.536 41.8451C118.267 41.3286 118.633 40.5645 118.633 39.5529C118.633 38.7135 118.353 38.0463 117.794 37.5513C117.256 37.0347 116.502 36.7764 115.534 36.7764C114.479 36.7764 113.651 37.0885 113.048 37.7127C112.467 38.3369 112.144 39.1009 112.079 40.0049H108.044C108.13 37.9172 108.851 36.2706 110.207 35.0653C111.584 33.86 113.36 33.2574 115.534 33.2574C117.084 33.2574 118.386 33.5372 119.44 34.0968C120.517 34.6349 121.324 35.3559 121.862 36.2599C122.421 37.1638 122.701 38.1647 122.701 39.2624C122.701 40.5322 122.346 41.6084 121.636 42.4908C120.947 43.3518 120.086 43.9329 119.053 44.2342C120.323 44.4925 121.356 45.1167 122.152 46.1067C122.949 47.0753 123.347 48.3021 123.347 49.7872C123.347 51.0355 123.046 52.1763 122.443 53.2094C121.84 54.2425 120.958 55.0711 119.796 55.6953C118.655 56.3195 117.245 56.6316 115.566 56.6316ZM126.663 56.2441V32.9991H130.795V46.7201L136.477 40.2309H141.384L134.831 47.5273L142.45 56.2441H137.284L130.795 48.2052V56.2441H126.663Z" fill="#0A071B"/>
<path d="M166.168 42.5391H153.254L159.711 49.5341L166.168 42.5391Z" fill="#8DDD2B"/>
<path d="M227.512 59.7587C227.512 53.8152 232.33 48.9971 238.273 48.9971H288.853C294.796 48.9971 299.614 53.8152 299.614 59.7587V95.2719H238.273C232.33 95.2719 227.512 90.4538 227.512 84.5103V59.7587Z" fill="#EEEEEF"/>
<path d="M243.595 74.564V73.0316H246.849V69.9839H248.433V73.0316H251.688V74.564H248.433V77.6289H246.849V74.564H243.595ZM255.18 78.7998V68.813L253.235 69.2607V67.9177L255.903 66.7468H257.074V78.7998H255.18ZM264.344 79.0064C263.254 79.0064 262.313 78.7481 261.52 78.2316C260.74 77.7036 260.137 76.9746 259.713 76.0448C259.299 75.1036 259.093 74.013 259.093 72.7733C259.093 71.5336 259.299 70.4488 259.713 69.519C260.137 68.5777 260.74 67.8488 261.52 67.3323C262.313 66.8042 263.254 66.5402 264.344 66.5402C265.435 66.5402 266.37 66.8042 267.151 67.3323C267.931 67.8488 268.528 68.5777 268.942 69.519C269.366 70.4488 269.579 71.5336 269.579 72.7733C269.579 74.013 269.366 75.1036 268.942 76.0448C268.528 76.9746 267.931 77.7036 267.151 78.2316C266.37 78.7481 265.435 79.0064 264.344 79.0064ZM264.344 77.3707C264.999 77.3707 265.578 77.187 266.083 76.8197C266.6 76.4523 267.002 75.9243 267.289 75.2356C267.576 74.5468 267.719 73.7261 267.719 72.7733C267.719 71.8206 267.576 70.9998 267.289 70.3111C267.002 69.6223 266.6 69.0943 266.083 68.727C265.578 68.3596 264.999 68.176 264.344 68.176C263.679 68.176 263.093 68.3596 262.588 68.727C262.083 69.0943 261.687 69.6223 261.4 70.3111C261.113 70.9998 260.969 71.8206 260.969 72.7733C260.969 73.7261 261.113 74.5468 261.4 75.2356C261.687 75.9243 262.083 76.4523 262.588 76.8197C263.093 77.187 263.679 77.3707 264.344 77.3707ZM273.938 72.4978C273.398 72.4978 272.91 72.3773 272.474 72.1362C272.049 71.8952 271.711 71.5565 271.458 71.1203C271.206 70.6727 271.079 70.1389 271.079 69.519C271.079 68.9106 271.206 68.3883 271.458 67.9521C271.711 67.5044 272.055 67.1601 272.491 66.919C272.927 66.6779 273.415 66.5574 273.955 66.5574C274.483 66.5574 274.959 66.6779 275.384 66.919C275.82 67.1601 276.165 67.5044 276.417 67.9521C276.67 68.3883 276.796 68.9106 276.796 69.519C276.796 70.1389 276.67 70.6727 276.417 71.1203C276.165 71.5565 275.82 71.8952 275.384 72.1362C274.959 72.3773 274.477 72.4978 273.938 72.4978ZM273.077 78.7998L279.981 66.7468H281.772L274.885 78.7998H273.077ZM273.938 71.1892C274.305 71.1892 274.621 71.0515 274.885 70.776C275.16 70.489 275.298 70.07 275.298 69.519C275.298 68.968 275.166 68.5548 274.902 68.2793C274.638 67.9923 274.316 67.8488 273.938 67.8488C273.57 67.8488 273.249 67.9923 272.973 68.2793C272.698 68.5548 272.56 68.968 272.56 69.519C272.56 70.07 272.692 70.489 272.956 70.776C273.232 71.0515 273.559 71.1892 273.938 71.1892ZM281.014 79.0064C280.475 79.0064 279.987 78.8859 279.551 78.6448C279.126 78.4038 278.787 78.0651 278.535 77.6289C278.282 77.1813 278.156 76.6475 278.156 76.0276C278.156 75.4192 278.282 74.8912 278.535 74.4435C278.787 73.9958 279.132 73.6515 279.568 73.4104C280.004 73.1693 280.492 73.0488 281.032 73.0488C281.56 73.0488 282.036 73.1693 282.461 73.4104C282.897 73.6515 283.241 73.9958 283.494 74.4435C283.746 74.8912 283.873 75.4192 283.873 76.0276C283.873 76.6475 283.746 77.1813 283.494 77.6289C283.241 78.0651 282.897 78.4038 282.461 78.6448C282.036 78.8859 281.554 79.0064 281.014 79.0064ZM281.014 77.6806C281.382 77.6806 281.697 77.5429 281.961 77.2674C282.237 76.9919 282.375 76.5786 282.375 76.0276C282.375 75.4766 282.243 75.0634 281.979 74.7879C281.715 74.5009 281.393 74.3574 281.014 74.3574C280.647 74.3574 280.326 74.5009 280.05 74.7879C279.775 75.0634 279.637 75.4766 279.637 76.0276C279.637 76.5786 279.769 76.9919 280.033 77.2674C280.308 77.5429 280.636 77.6806 281.014 77.6806Z" fill="#242424"/>
</svg>
