<svg width="285" height="176" viewBox="0 0 285 176" fill="none" xmlns="http://www.w3.org/2000/svg">
<path opacity="0.1" d="M273.234 86.0761C267.888 73.8481 260.812 62.4526 252.223 52.2391C239.527 36.6902 223.683 24.0072 205.733 15.0248C187.784 6.04232 168.136 0.964133 148.083 0.124428C128.03 -0.715277 108.027 2.70252 89.3897 10.1529C70.7525 17.6033 53.904 28.9173 39.953 43.3504C26.0021 57.7834 15.2651 75.0082 8.44863 93.891C1.63219 112.774 -1.10913 132.887 0.405137 152.906C1.9194 172.925 7.6549 192.396 17.2341 210.038C26.8134 227.68 40.0191 243.092 55.9823 255.261C66.2251 263.225 77.543 269.7 89.5995 274.492C106.503 281.421 124.594 284.99 142.862 285C180.57 284.917 216.707 269.881 243.351 243.19C269.995 216.499 284.972 180.33 285 142.611C285.028 123.155 281.021 103.905 273.234 86.0761ZM142.757 29.0155C159.162 29.0138 175.368 32.6003 190.241 39.5239C186.614 41.0914 182.801 42.1863 178.895 42.7815C166.043 44.6425 154.137 50.6111 144.954 59.7964C135.772 68.9818 129.805 80.8912 127.944 93.7472C127.128 100.957 123.849 107.665 118.663 112.738C113.476 117.811 106.699 120.939 99.4746 121.594C86.6222 123.455 74.7162 129.424 65.5335 138.609C56.3508 147.795 50.3839 159.704 48.5234 172.56C47.8936 179.416 44.9694 185.858 40.2242 190.845C32.0368 173.54 28.3589 154.445 29.5326 135.336C30.7062 116.228 36.6933 97.7267 46.9368 81.5549C57.1803 65.383 71.3471 52.0659 88.119 42.843C104.891 33.6201 123.723 28.7911 142.862 28.8054L142.757 29.0155ZM55.8772 216.17C57.1379 215.014 58.3985 213.963 59.6592 212.702C69.0053 203.638 75.0046 191.673 76.6779 178.76C77.3564 171.501 80.5964 164.721 85.8176 159.635C90.8418 154.403 97.6043 151.189 104.832 150.598C117.685 148.737 129.591 142.768 138.773 133.583C147.956 124.397 153.923 112.488 155.784 99.632C156.238 92.0398 159.495 84.887 164.923 79.5609C170.071 74.4313 176.898 71.3339 184.148 70.8389C195.955 69.214 206.967 63.9635 215.664 55.812C225.567 64.0303 233.958 73.9168 240.457 85.0253C240.058 85.5649 239.6 86.0583 239.091 86.4965C234.077 91.7737 227.323 95.0583 220.077 95.7439C207.211 97.5723 195.287 103.53 186.098 112.722C176.91 121.913 170.953 133.84 169.125 146.71C168.385 153.944 165.167 160.7 160.017 165.832C154.867 170.965 148.101 174.158 140.866 174.872C127.976 176.719 116.026 182.675 106.79 191.857C97.5537 201.039 91.5252 212.956 89.5995 225.838C89.0342 230.974 87.2709 235.905 84.4519 240.234C73.6733 233.833 64.0198 225.703 55.8772 216.17ZM142.757 256.732C132.097 256.744 121.488 255.258 111.241 252.319C114.746 245.783 117.025 238.66 117.964 231.302C118.7 224.084 121.903 217.341 127.032 212.21C132.161 207.08 138.902 203.876 146.119 203.14C158.99 201.3 170.92 195.34 180.123 186.153C189.327 176.966 195.309 165.045 197.175 152.174C197.911 144.956 201.114 138.213 206.243 133.082C211.372 127.952 218.113 124.748 225.329 124.011C235.015 122.751 244.247 119.144 252.223 113.503C256.652 130.294 257.176 147.878 253.757 164.903C250.337 181.929 243.064 197.945 232.495 211.722C221.927 225.5 208.344 236.673 192.788 244.384C177.232 252.095 160.118 256.14 142.757 256.207V256.732Z" fill="white"/>
</svg>
